<svg xmlns="http://www.w3.org/2000/svg" width="142" height="142" viewBox="0 0 142 142">
  <g fill="none" fill-rule="evenodd" transform="translate(2 2)">
    <circle cx="69" cy="69" r="69" fill="#000"/>
    <path fill="#FFF" d="M79.3346133,29.4844309 L31.8204847,71.8358225 C31.4082047,72.2033054 31.3718895,72.8354281 31.7393724,73.2477081 C31.7603051,73.2711925 31.7823343,73.293676 31.8053866,73.3150837 L79.3195153,117.439406 C79.7242087,117.815228 80.3569409,117.791822 80.7327623,117.387129 C80.9045352,117.20216 81,116.959071 81,116.706644 L81,88.5833322 C81,88.2986687 80.8786811,88.0274969 80.6664504,87.8377828 L64.4560638,73.3472363 C64.0443083,72.9791659 64.0088944,72.3469921 64.3769648,71.9352365 C64.4118125,71.8962529 64.449664,71.8600625 64.4901713,71.8269983 L80.6323429,58.6508819 C80.8650112,58.4609653 81,58.1765311 81,57.8761932 L81,30.2309298 C81,29.6786451 80.5522847,29.2309298 80,29.2309298 C79.754614,29.2309298 79.5177937,29.3211543 79.3346133,29.4844309 Z"/>
  </g>
</svg>
